<svg xmlns="http://www.w3.org/2000/svg" width="200" height="200" viewBox="0 0 650 650">
<title>Rocking Chair</title>
<desc>Schaukelstuhl</desc>

<style type="text/css">
.a{fill:#743B1E;}
.b{fill:#CF9860;}
.c{fill:#F0B978;}
.nail{fill:black;}
.e{fill:#B16A3E;}
.f{fill:#ECB179;}
.g{fill:#B97745;}
.h{fill:#F6B170;}
.i{fill:#824C2A;}
</style>

<g transform="translate(-200,-50)">
<polygon points="512.5 462.7 507.5 463.6 661.6 536.7 665.7 518.7 " class="a"/>
<polygon points="507.5 463.6 504.4 482.5 659.3 539.9 663.3 521.9 " class="b"/>
<path d="M305.3 571.5l-11.1-9.6c0 0-3.3-9.2 6.2-10.9 0 0 144.6-13.3 194.9-43.9l20.6 7.4 -84.3 31.7L305.3 571.5z" fill="#E8A163"/>
<path d="M306.5 573.2c0 0-5.4-8.3 3.8-11 0 0 138.2-13.4 203.5-49.2l8.6 8.7C522.5 521.7 405.3 574.9 306.5 573.2z" fill="#6F391D"/>
<polygon points="489.8 388.4 497.4 392.4 510 308.6 501.9 308.6 " class="c"/>
<polygon points="510 308.6 520.8 308.6 507.3 391.3 497.4 392.4 " class="a"/>
<polygon points="344.3 295.6 342.5 305.5 350.1 309.6 351.9 298.6 " fill="#F6B482"/>
<polygon points="351.9 298.6 521.4 303.5 520.1 312.5 350.1 309.6 " fill="#A3552F"/>
<path d="M344.3 295.6c0 0 1.6-2.5 7.6-1.8l170.5 5.6 -1 4 -169.5-4.9L344.3 295.6z" fill="#D48F56"/>
<polygon points="348.3 308.6 315.5 553.7 320.9 558.7 356.9 309.7 " fill="#F6C583"/>
<polygon points="356.9 309.7 371.7 309.7 336.2 558.7 320.9 558.7 " fill="#894321"/><circle cx="365.5" cy="304.1" r="1.5" class="nail"/>
<path d="M567.1 63.5c0 0 4.1 1.6 2.2 12.1l-50.8 290.4c0 0-4 2.2-5.7 2 -1.7-0.2-7 2.5-3.9-16.4 3.1-18.9 48.2-285 48.2-285S558.7 62 567.1 63.5z" fill="#95542A"/>
<path d="M503.6 357.5L552 69.8c0 0 1.2-8.4 6.3-7.8l8.8 1.6c0 0-5.4-2-7.3 6.8L510 360.1c0 0-1.6 7.4 1.1 7.7 2.7 0.3-3.4 1.1-7.5-3.6C503.7 364.2 502.4 364.5 503.6 357.5z" class="c"/>
<polygon points="522.4 327.9 517.5 328.8 671.5 401.9 675.6 383.9 " class="a"/>
<polygon points="517.5 328.8 514.4 347.7 669.2 405.1 673.3 387.1 " class="b"/>
<path d="M675.8 439.5l8.6 2.1 65.6-341c0 0 3.4-11-2.5-13.3l-8.9 4.5 -66.2 346.3L675.8 439.5z" fill="#8C522D"/>
<path d="M675.8 439.5l-12.2-4.7 66.5-338.7c0 0 2.9-10.4 10.2-8.3l7.2-0.5c0 0-6.7 4-6.6 9L675.8 439.5z" fill="#CF8A53"/>
<polygon points="498.3 388.4 670.4 464.4 671.8 458.8 507.6 388.4 " fill="#8C5D3F"/><defs>

<polygon points="357.1 400.4 515.4 480.8 659.8 458.4 498.3 388.4 355.4 393.8 "/></defs>


<polygon points="355.4 399.5 513.8 479.9 659.8 458.4 498.3 388.4 355.4 393.8 " style="clip-path:url(#SVGID_2_);fill:#793A17"/>

<polygon points="355.4 393.8 500.2 386.3 504.5 391.1 355.4 399.5 " class="e"/>
<polygon points="359.8 401.9 508.3 392.1 518.9 397.2 369.9 406.6 " class="e"/>
<polygon points="373.6 409 522.7 399 534.1 403.9 383.7 413.7 " class="e"/>
<polygon points="386.4 416 540.4 405.9 551.5 410.2 401.9 423.4 " class="e"/>
<polygon points="404 424.5 556.5 412.1 568.9 417.8 419.5 431.9 " class="e"/>
<polygon points="421 433.7 572.9 420.1 586.1 425.5 437.3 441.1 " class="e"/>
<polygon points="441.2 442.6 591.3 428.8 605.3 432.9 456.7 450.1 " class="e"/>
<polygon points="458.5 451.4 608.1 436.2 622.6 441.7 474 458.9 " class="e"/>
<polygon points="477.4 462.7 628.3 443.7 642.8 450.1 492.9 470.2 " class="e"/>
<polygon points="498.3 472.5 645.9 453.4 659.8 458.4 513.8 479.9 " class="e"/>
<path d="M451.4 693.8c0 0 173.8-33 271.9-141.5 0 0 2.7-5.1 0-8.8 0 0-144.8 91.5-157.3 89.7l-114.6 35.4C451.4 668.6 445.9 688.7 451.4 693.8z" fill="#502715"/>
<path d="M447.3 664.2c0 0 148.2-26.3 256.7-125.3 0 0 4.7-2.4 8.1 0l11.1 4.7c0 0-89.5 97.2-270.5 136.1 0 0-7.1 8.8-1.3 14.2l-14.8-10.1C436.6 683.7 425.4 671.2 447.3 664.2z" fill="#A16334"/>
<polygon points="344.9 427.7 499.2 514.2 505.3 482.2 348.9 400 " class="f"/>
<polygon points="348.9 400 358.7 400 507.6 475.8 505.3 482.2 " class="g"/>
<polygon points="333.4 503.5 331.8 515.9 481 615.3 484.4 599.5 " class="f"/>
<polygon points="333.4 503.5 344.9 503.5 484.4 593.7 484.4 599.5 " class="g"/>
<circle cx="519.5" cy="510.2" r="1.5" class="nail"/><circle cx="498.5" cy="614.9" r="1.5" class="nail"/>
<path d="M697.1 371.7h12.1c0 0-38.6 162.6-35.9 211.6l-11.7 7.2C661.6 590.5 668.8 479.1 697.1 371.7z" fill="#5C321A"/>
<polygon points="661.6 590.5 650.9 585.1 661.6 489.9 673.6 487.5 " fill="#B67741"/>
<polygon points="667.9 457.1 687.3 371.7 697.1 371.7 677.9 461 " fill="#D69251"/>
<polygon points="531.4 481.1 677.9 461 673.6 487.5 525.5 515.5 " fill="#844420"/>
<polygon points="677.9 461 668.1 457.1 531.5 477.3 531.5 484.1 " fill="#C1773A"/>
<circle cx="331.8" cy="545.7" r="1.5" class="nail"/><circle cx="499.9" cy="611.2" r="1.5" class="nail"/>
<circle cx="521" cy="501.3" r="1.5" class="nail"/><circle cx="681.9" cy="475.1" r="1.5" class="nail"/>
<circle cx="701.3" cy="380.1" r="1.5" class="nail"/><circle cx="523.2" cy="307.7" r="1.5" class="nail"/>
<polygon points="557.2 99.2 560.8 78.1 730.4 96.5 725.6 120.2 " class="a"/>
<polygon points="525.9 331.5 538.1 335.6 576 132.7 563.2 130.9 " class="h"/>
<polygon points="538.1 335.6 541.1 334.3 578.3 133.1 576 132.7 " class="i"/>
<polygon points="543.6 337.8 555.8 341.8 594.6 136.3 581.4 133 " class="h"/>
<polygon points="555.8 341.8 558.8 340.6 596.5 135.6 593.4 134.7 " class="i"/>
<polygon points="561.1 344.5 573.3 348.6 612.7 137.8 599.7 136.4 " class="h"/>
<polygon points="573.3 348.6 576.3 347.4 614.8 139.2 612.2 138.4 " class="i"/>
<polygon points="578.3 350.8 590.5 354.9 630.8 140.4 618 136.4 " class="h"/>
<polygon points="590.5 354.9 593.5 353.7 633.1 140.7 630.8 139.9 " class="i"/>
<polygon points="596.5 357.7 608.7 361.8 649.6 143.2 636.7 141.3 " class="h"/>
<polygon points="608.7 361.8 611.7 360.6 652.1 143.1 649.6 142.2 " class="i"/>
<polygon points="616.4 364 628.6 368.1 670.6 144.5 657.3 144.5 " class="h"/>
<polygon points="628.6 368.1 631.6 366.9 672.3 145.7 670 146.3 " class="i"/>
<polygon points="635.4 370.6 647.6 374.6 690.6 145.7 677.2 145.7 " class="h"/>
<polygon points="647.6 374.6 650.6 373.4 692.5 148.2 689.9 148.2 " class="i"/>
<polygon points="655.2 378.6 667.4 382.7 710.8 149.5 698.3 147.6 " class="h"/>
<polygon points="667.4 382.7 670.4 381.5 712.5 152.2 710.1 151.4 " class="i"/>
<polygon points="554.9 111.8 722.9 133.8 718.9 154.2 551.7 130.2 " fill="#EDAF72"/>
<polygon points="557.2 97.8 560.8 76.8 730.4 95.1 725.6 118.9 " fill="#EFB478"/>
<polygon points="518.8 357.7 516.1 370.7 523 373.2 540.8 379.7 544.4 365.3 " fill="#B89168"/>
<polygon points="525.4 374.1 471.2 662.3 482.4 669.4 536.4 378.1 " fill="#DC9A5E"/>
<polygon points="482.4 669.4 497.2 664.5 552 376.3 536.4 378.1 " fill="#743F20"/>
<polygon points="544.4 365.3 541.1 378.6 714.2 372 718.7 357.7 " fill="#7D4220"/>
<polygon points="518.8 357.7 703.4 350.9 718.7 357.7 544.4 365.3 " fill="#BA7441"/>
<circle cx="520.6" cy="501.3" r="1.5" class="nail"/>
<circle cx="500.6" cy="610.4" r="1.5" class="nail"/>
<circle cx="671.8" cy="531.1" r="1.5" class="nail"/>
</g>
</svg>
