<?xml version="1.0" encoding="UTF-8" standalone="no"?>
<!-- Created with Inkscape (http://www.inkscape.org/) -->
<svg xmlns:svg="http://www.w3.org/2000/svg" xmlns="http://www.w3.org/2000/svg" xmlns:xlink="http://www.w3.org/1999/xlink" version="1.1" width="165" height="195" viewBox="0 0 256 256" id="svg1" xml:space="preserve">
   <defs><linearGradient x1="126.17627" y1="185.83984" x2="126.17627" y2="267.81442" id="linearGradient10762" gradientUnits="userSpaceOnUse">
      <stop id="stop10764" style="stop-color:#eeee83;stop-opacity:1" offset="0"/>
      <stop id="stop10766" style="stop-color:#a3630d;stop-opacity:1" offset="1"/>
      <midPointStop offset="0" style="stop-color:#FFFFDE" id="midPointStop469"/>
      <midPointStop offset="0.5" style="stop-color:#FFFFDE" id="midPointStop471"/>
      <midPointStop offset="1" style="stop-color:#FF9200" id="midPointStop473"/>
    </linearGradient><linearGradient x1="125.95068" y1="229.97754" x2="125.95068" y2="148.00539" id="linearGradient2998" gradientUnits="userSpaceOnUse">
      <stop id="stop3000" style="stop-color:#e8bd44;stop-opacity:1" offset="0"/>
      <stop id="stop3002" style="stop-color:#a34d0c;stop-opacity:1" offset="0.79774499"/>
      <stop id="stop3004" style="stop-color:#800000;stop-opacity:1" offset="1"/>
      <midPointStop offset="0" style="stop-color:#FFE091" id="midPointStop433"/>
      <midPointStop offset="0.5" style="stop-color:#FFE091" id="midPointStop435"/>
      <midPointStop offset="0.797745" style="stop-color:#FF6D00" id="midPointStop437"/>
      <midPointStop offset="0.5" style="stop-color:#FF6D00" id="midPointStop439"/>
      <midPointStop offset="1" style="stop-color:#CF0000" id="midPointStop441"/>
    </linearGradient><linearGradient x1="126.17725" y1="175.92969" x2="126.17725" y2="186.74023" id="linearGradient2939" gradientUnits="userSpaceOnUse">
      <stop id="stop2941" style="stop-color:#ffffff;stop-opacity:1" offset="0"/><stop id="stop13533" style="stop-color:#ff5858;stop-opacity:1" offset="0.39887249"/>
      <stop id="stop2943" style="stop-color:#b20000;stop-opacity:1" offset="0.79774499"/>
      <stop id="stop2945" style="stop-color:#5e0000;stop-opacity:1" offset="1"/>
      <midPointStop offset="0" style="stop-color:#FFE091" id="midPointStop412"/>
      <midPointStop offset="0.5" style="stop-color:#FFE091" id="midPointStop414"/>
      <midPointStop offset="0.797745" style="stop-color:#FF6D00" id="midPointStop416"/>
      <midPointStop offset="0.5" style="stop-color:#FF6D00" id="midPointStop418"/>
      <midPointStop offset="1" style="stop-color:#CF0000" id="midPointStop420"/>
    </linearGradient><linearGradient x1="126.17725" y1="175.92969" x2="126.17725" y2="186.74023" id="XMLID_38_" gradientUnits="userSpaceOnUse">
      <stop id="stop406" style="stop-color:#ffe091;stop-opacity:1" offset="0"/>
      <stop id="stop408" style="stop-color:#ff6d00;stop-opacity:1" offset="0.79774499"/>
      <stop id="stop410" style="stop-color:#cf3f00;stop-opacity:1" offset="1"/>
      <midPointStop id="midPointStop34" style="stop-color:#FFE091" offset="0"/>
      <midPointStop id="midPointStop36" style="stop-color:#FFE091" offset="0.5"/>
      <midPointStop id="midPointStop38" style="stop-color:#FF6D00" offset="0.797745"/>
      <midPointStop id="midPointStop40" style="stop-color:#FF6D00" offset="0.5"/>
      <midPointStop id="midPointStop42" style="stop-color:#CF0000" offset="1"/>
    </linearGradient><linearGradient x1="125.95068" y1="229.97754" x2="125.95068" y2="148.00539" id="XMLID_39_" gradientUnits="userSpaceOnUse">
      <stop id="stop427" style="stop-color:#ffe291;stop-opacity:1" offset="0"/>
      <stop id="stop429" style="stop-color:#ff6d00;stop-opacity:1" offset="0.79774499"/>
      <stop id="stop431" style="stop-color:#cf0000;stop-opacity:1" offset="1"/>
      <midPointStop id="midPointStop48" style="stop-color:#FFE091" offset="0"/>
      <midPointStop id="midPointStop50" style="stop-color:#FFE091" offset="0.5"/>
      <midPointStop id="midPointStop52" style="stop-color:#FF6D00" offset="0.797745"/>
      <midPointStop id="midPointStop54" style="stop-color:#FF6D00" offset="0.5"/>
      <midPointStop id="midPointStop56" style="stop-color:#CF0000" offset="1"/>
    </linearGradient><linearGradient x1="125.95068" y1="192.5957" x2="125.95068" y2="187.64168" id="XMLID_40_" gradientUnits="userSpaceOnUse">
      <stop id="stop448" style="stop-color:#ffffff;stop-opacity:0" offset="0"/>
      <stop id="stop450" style="stop-color:#000000;stop-opacity:1" offset="1"/>
      <midPointStop id="midPointStop452" style="stop-color:#FFFFFF" offset="0"/>
      <midPointStop id="midPointStop454" style="stop-color:#FFFFFF" offset="0.5"/>
      <midPointStop id="midPointStop456" style="stop-color:#000000" offset="1"/>
    </linearGradient><linearGradient x1="126.17627" y1="185.83984" x2="126.17627" y2="267.81442" id="XMLID_41_" gradientUnits="userSpaceOnUse">
      <stop id="stop465" style="stop-color:#ffffde;stop-opacity:1" offset="0"/>
      <stop id="stop467" style="stop-color:#ff9200;stop-opacity:1" offset="1"/>
      <midPointStop id="midPointStop67" style="stop-color:#FFFFDE" offset="0"/>
      <midPointStop id="midPointStop69" style="stop-color:#FFFFDE" offset="0.5"/>
      <midPointStop id="midPointStop71" style="stop-color:#FF9200" offset="1"/>
    </linearGradient><linearGradient x1="120.3208" y1="209.26074" x2="134.73535" y2="209.26074" id="linearGradient13536" xlink:href="#linearGradient2939" gradientUnits="userSpaceOnUse" gradientTransform="matrix(0,0.727273,-0.727273,0.339132,324.5204,-81.48445)"/><linearGradient x1="126.17627" y1="185.83984" x2="126.17627" y2="267.81442" id="linearGradient13542" xlink:href="#linearGradient10762" gradientUnits="userSpaceOnUse" gradientTransform="matrix(0.727273,-0.339132,0,0.727273,79.58301,-25.54693)"/><linearGradient x1="6" y1="95.46875" x2="6" y2="98" id="linearGradient1972" xlink:href="#XMLID_38_" gradientUnits="userSpaceOnUse" gradientTransform="matrix(0,-3.103032,3.103032,0,-206.4498,294.7104)"/><linearGradient x1="6" y1="95.46875" x2="6" y2="98" id="linearGradient1983" xlink:href="#XMLID_38_" gradientUnits="userSpaceOnUse" gradientTransform="matrix(0,-3.103032,3.103032,0,-206.4498,294.7104)"/><linearGradient x1="120.3208" y1="209.26074" x2="134.73535" y2="209.26074" id="linearGradient1987" xlink:href="#linearGradient2939" gradientUnits="userSpaceOnUse" gradientTransform="matrix(0,0.727273,-0.727273,0.339132,324.5204,-81.48445)"/><linearGradient x1="126.17627" y1="185.83984" x2="126.17627" y2="267.81442" id="linearGradient1993" xlink:href="#XMLID_41_" gradientUnits="userSpaceOnUse" gradientTransform="matrix(0.727273,-0.339132,0,0.727273,79.58301,-25.54693)"/><linearGradient x1="125.95068" y1="192.5957" x2="125.95068" y2="187.64168" id="linearGradient1997" xlink:href="#XMLID_40_" gradientUnits="userSpaceOnUse" gradientTransform="matrix(0.802457,0,0,0.727273,87.81007,11.56316)"/><linearGradient x1="125.95068" y1="229.97754" x2="125.95068" y2="148.00539" id="linearGradient2000" xlink:href="#linearGradient2998" gradientUnits="userSpaceOnUse" gradientTransform="matrix(0.802457,0,0,3.905685,87.81007,-584.8427)"/><linearGradient x1="126.17725" y1="175.92969" x2="126.17725" y2="185.51038" id="linearGradient2003" xlink:href="#XMLID_38_" gradientUnits="userSpaceOnUse" gradientTransform="matrix(0.727273,-0.339132,0,0.727273,79.69097,-26.6673)"/><linearGradient x1="6" y1="95.46875" x2="6" y2="98" id="linearGradient2008" xlink:href="#XMLID_38_" gradientUnits="userSpaceOnUse" gradientTransform="matrix(0,-3.103032,3.103032,0,-56.08723,225.0099)"/><linearGradient x1="126.17725" y1="175.92969" x2="126.17725" y2="186.74023" id="linearGradient2012" xlink:href="#XMLID_38_" gradientUnits="userSpaceOnUse" gradientTransform="matrix(-0.727273,-0.339132,0,0.727273,176.1197,5.681803)"/><linearGradient x1="125.95068" y1="192.5957" x2="125.95068" y2="187.64168" id="linearGradient2016" xlink:href="#XMLID_40_" gradientUnits="userSpaceOnUse" gradientTransform="matrix(0.80288,0,0,0.727273,-118.8347,-74.20443)"/><linearGradient x1="125.95068" y1="229.97754" x2="125.95068" y2="148.00539" id="linearGradient2019" xlink:href="#XMLID_39_" gradientUnits="userSpaceOnUse" gradientTransform="matrix(0.802457,0,0,3.905685,-118.8383,-671.8318)"/><linearGradient x1="6" y1="95.46875" x2="6" y2="98" id="linearGradient2022" xlink:href="#XMLID_38_" gradientUnits="userSpaceOnUse" gradientTransform="matrix(0,-3.103032,3.103032,0,-286.46,257.2251)"/><linearGradient x1="6" y1="95.46875" x2="6" y2="98" id="linearGradient2025" xlink:href="#XMLID_38_" gradientUnits="userSpaceOnUse" gradientTransform="matrix(0,-3.103032,3.103032,0,-286.46,257.2251)"/><linearGradient x1="111.40794" y1="-97.593391" x2="-102.11429" y2="206.31804" id="linearGradient2030" xlink:href="#XMLID_41_" gradientUnits="userSpaceOnUse" gradientTransform="matrix(0.775758,0,0,0.775758,-18.21594,97.67778)"/></defs>
  
  
<g id="g2067"><path d="m 5.125,50.9375 c -0.7572611,-0.03462 -1.5618141,0.114262 -2.34375,0.53125 -1.5081466,0.804258 -2.3125,2.586407 -2.3125,4.0625 l 0,4.15625 c 0,3.000523 1.6426633,5.077902 4.15625,6.25 l 156.84375,73.15625 c 1.27297,0.5936 2.92841,0.8213 4.4375,0.0312 1.50909,-0.79005 2.34376,-2.59347 2.34375,-4.09375 l 0,-4.15625 c 0,-3.00054 -1.60585,-5.09197 -4.15625,-6.28125 L 7.25,51.46875 C 6.6104909,51.170544 5.8822611,50.972122 5.125,50.9375 z" id="path8356" style="fill:#460000;fill-opacity:1"/><path d="m 5.1875,50 c -0.9294001,-0.04291 -1.9221552,0.164786 -2.84375,0.65625 -1.93945259,1.034263 -2.8125,2.998687 -2.8125,4.875 l 0,4.15625 c 0,3.222937 2.053648,5.850999 4.71875,7.09375 l 156.84375,73.15625 c 1.48835,0.69404 3.46296,0.93556 5.25,0 1.93745,-1.0143 2.84377,-2.99079 2.84375,-4.90625 l 0,-4.15625 c 0,-3.20965 -2.02139,-5.86719 -4.71875,-7.125 L 7.625,50.625 C 6.9088199,50.291041 6.0862257,50.041495 5.1875,50 z" transform="matrix(0.775758,0,0,0.775758,72.05077,48.87268)" id="path19386" style="fill:#460000;fill-opacity:1"/><path d="M 162.62052,-22.884935 2.9113383,51.393894 92.608357,93.090886 c -0.757608,0.359423 -1.521384,0.706911 -2.278789,1.066667 -3.620818,2.836125 -4.47765,9.796387 -0.630304,12.654557 5.085142,2.07791 9.678413,-3.38266 14.400006,-4.55758 49.40805,-23.167798 99.05337,-45.917069 148.31523,-69.333374 1.7905,-1.406105 2.88131,-3.801662 3.07604,-6.217613 0.20818,-2.582921 0.0887,-6.389995 -2.20331,-7.455122 l -90.66671,-42.133356 z" id="path7819" style="fill:#460000;fill-opacity:1"/><rect width="174.70459" height="97.94957" x="-61.874432" y="66.589493" transform="matrix(0.906734,-0.421703,0.906734,0.421703,0,0)" id="rect20301" style="color:#000000;fill:url(#linearGradient2030);fill-opacity:1;fill-rule:evenodd;stroke:none;stroke-width:3;marker:none;visibility:visible;display:inline;overflow:visible"/><path d="m 6.9840678,61.187838 c 0,54.020112 0,108.016332 0,162.036452 0,0.82437 0,1.64836 0,2.47273 l 0,10.61819 c 1.5e-6,2.77367 2.3657159,5.13939 5.1393972,5.13939 l 3.200001,0 c 2.773692,0 5.139397,-2.36573 5.139397,-5.13939 l 0,-4.31516 c 25.091362,11.70026 50.157164,23.40279 75.248526,35.10305 0,-53.81013 0,-107.6445 0,-161.45463 0,-1.03435 0,-2.06869 0,-3.10303 C 66.123621,88.748478 36.571835,74.984797 6.9840678,61.187838 z" id="rect9621" style="fill:#460000;fill-opacity:1;stroke:none"/><path d="m 250.8145,27.975699 c -53.0822,24.752563 -106.1906,49.47778 -159.27281,74.230341 0,1.03435 0,2.06869 0,3.10303 0,52.42044 0,104.86331 0,157.28494 l -4.557579,0 0,11.15152 c 9e-6,2.75998 2.379429,5.1394 5.139397,5.1394 l 3.200002,0 c 2.76001,10e-6 5.1394,-2.37942 5.1394,-5.1394 l 0,-11.15152 c 45.61671,-21.2704 91.25938,-42.53629 136.8728,-63.8061 l 0,5.28485 c 0,2.77197 2.36743,5.1394 5.1394,5.1394 l 3.2,0 c 2.77197,0 5.13939,-2.36746 5.13939,-5.1394 0,0 0,-121.252584 0,-176.097061 z" id="rect6938" style="fill:#460000;fill-opacity:1;stroke:none"/><path d="m 9.7750201,223.25583 0,13.03327 c 0,1.30256 1.0247139,2.32728 2.3272739,2.32728 l 3.200002,0 c 1.302575,0 2.327274,-1.02473 2.327274,-2.32728 l 0,-13.03327 -7.8545499,0 z" id="path22309" style="fill:url(#linearGradient2025);fill-opacity:1"/><path d="m 9.7750201,223.25583 0,13.03327 c 0,1.30256 1.0247139,2.32728 2.3272739,2.32728 l 3.200002,0 c 1.302575,0 2.327274,-1.02473 2.327274,-2.32728 l 0,-13.03327 -7.8545499,0 z" id="path25827" style="fill:url(#linearGradient2022);fill-opacity:1"/><rect width="91.739502" height="157.13855" x="-102.52501" y="62.223549" transform="matrix(-0.906308,-0.422617,0,1,0,0)" id="rect9595" style="fill:url(#linearGradient2019);fill-opacity:1;stroke:none"/><rect width="91.728821" height="21.497171" x="-102.51318" y="62.158573" transform="matrix(-0.906412,-0.422395,0,1,0,0)" id="rect20297" style="opacity:0.7;fill:url(#linearGradient2016)"/><path d="M 4.375,52.5625 C 0.49553557,54.054576 1.3673876,60.366 3.53125,63.1875 15.64011,70.090299 29.019751,75.140645 41.563146,81.408301 82.243452,100.189 122.81657,119.69033 163.5625,138.03125 c 4.6248,-0.34805 3.84487,-7.31422 1.9375,-10.25 -5.9503,-5.01332 -14.40212,-6.66506 -21.12757,-10.62208 C 97.967698,95.689116 51.719809,73.653812 5.21875,52.53125 4.937612,52.540743 4.6526562,52.505523 4.375,52.5625 z" id="path6589" style="fill:#460000;fill-opacity:1"/><path d="m 165.14173,135.02367 c 0,1.30257 -1.05575,1.86637 -2.35831,1.25897 L 5.9264497,63.139299 C 4.6238822,62.531903 3.5670671,60.983002 3.5670671,59.680441 l 0,-4.153374 c 0,-1.302554 1.0568151,-1.865865 2.3593826,-1.25847 L 162.78342,127.41194 c 1.30256,0.6074 2.35831,2.15581 2.35831,3.45836 l 0,4.15337 0,0 z" id="path12266" style="fill:url(#linearGradient2012)"/><rect width="2.8066957" height="2.0412867" x="91.561119" y="102.55952" id="rect19380" style="color:#000000;fill:#460000;fill-opacity:1;fill-rule:evenodd;stroke:none;stroke-width:3;marker:none;visibility:visible;display:inline;overflow:visible"/><path d="m 240.14783,191.04064 0,13.03327 c 0,1.30256 1.02472,2.32728 2.32728,2.32728 l 3.2,0 c 1.30257,0 2.32727,-1.02473 2.32727,-2.32728 l 0,-13.03327 -7.85455,0 z" id="path22300" style="fill:url(#linearGradient2008);fill-opacity:1"/><rect width="4.3613253" height="3.1030316" x="100.27128" y="98.521194" id="rect17623" style="color:#000000;fill:#460000;fill-opacity:1;fill-rule:evenodd;stroke:none;stroke-width:3;marker:none;visibility:visible;display:inline;overflow:visible"/><path d="M 250.36489,20.140166 C 197.21066,44.698834 144.04588,69.3604 91.164801,94.443237 c -2.832885,2.384667 -3.659211,9.030543 0.533334,10.157583 5.843059,-0.59887 10.456855,-5.15275 16.070225,-6.832986 47.98431,-22.525218 96.28222,-44.517777 144.05107,-67.445845 2.89191,-2.297007 3.61967,-10.281839 -1.45454,-10.181823 z" id="path11381" style="fill:#460000;fill-opacity:1"/><path d="m 90.668957,101.66608 c 0,1.30256 1.055754,1.86636 2.35831,1.25897 L 249.88424,29.781707 c 1.30256,-0.607395 2.35938,-2.156297 2.35938,-3.458857 l 0,-3.144889 c 0,-1.302553 -1.05682,-1.865865 -2.35938,-1.258469 L 93.027267,95.062838 c -1.302556,0.607389 -2.35831,2.155803 -2.35831,3.458357 l 0,3.144885 0,0 z" id="path423" style="fill:url(#linearGradient2003);fill-opacity:1"/><rect width="169.5134" height="158.32135" x="104.12329" y="148.02985" transform="matrix(0.906308,-0.422617,0,1,0,0)" id="rect444" style="fill:url(#linearGradient2000);fill-opacity:1;stroke:none"/><rect width="169.5134" height="21.497171" x="104.12328" y="147.92686" transform="matrix(0.906308,-0.422617,0,1,0,0)" id="rect459" style="opacity:0.7;fill:url(#linearGradient1997)"/><polygon points="50.508301,222.77344 201.84668,222.77344 201.84668,193.0459 200.04492,193.0459 200.04492,193.0459 50.508301,193.0459 " transform="matrix(0.727273,-0.339132,0,0.727273,79.58301,-25.54693)" id="polygon461" style="fill:#824f26"/><path d="m 117.62564,98.421028 c 0,2.164062 0,16.834522 0,18.999292 1.91478,-0.89287 105.52989,-49.209229 107.44466,-50.102098 0,-2.164772 0,-16.835239 0,-18.999298 -1.91477,0.89287 -105.52988,49.209233 -107.44466,50.102104 z" id="path476" style="fill:url(#linearGradient1993)"/><path d="m 118.93601,99.120358 c 1.80434,-0.841372 93.95815,-43.813259 106.13429,-49.49107 0,-0.590909 0,-1.046873 0,-1.310364 -1.91477,0.89287 -105.52988,49.209233 -107.44466,50.102104 0,2.164062 0,16.834522 0,18.999292 0.11044,-0.0515 0.56996,-0.26577 1.31037,-0.61103 0,-4.25213 0,-15.78836 0,-17.688932 z" id="path478" style="opacity:0.7;fill:#ffffff"/><circle cx="129.32935" cy="211.06152" r="9.0085449" transform="matrix(0.727273,-0.339132,0,0.727273,79.58301,-26.71059)" id="circle482" style="opacity:0.2"/><circle cx="127.52783" cy="209.25977" r="9.0073242" transform="matrix(0.727273,-0.339132,0,0.727273,79.58301,-26.71059)" id="circle484" style="fill:#663333"/><path d="m 172.33146,76.988317 c -2.89205,1.348582 -5.24219,4.796385 -5.24219,7.687012 0,2.889914 2.35014,4.144885 5.24219,2.796304 2.88991,-1.347585 5.24078,-4.794658 5.24078,-7.684572 0,-2.890627 -2.35087,-4.146328 -5.24078,-2.798744 z" id="path486" style="fill:url(#linearGradient1987);fill-opacity:1;stroke:none"/><path d="m 247.99917,190.70762 -153.628263,71.63925 0,0.98224 153.631473,-71.63927 -0.003,-0.98222 z" id="polygon480" style="fill:#460000;fill-opacity:1;stroke:none"/><path d="m 89.792685,263.68007 0,10.08485 c 3e-6,1.30256 1.024721,2.32728 2.327274,2.32728 l 3.200002,0 c 1.30256,0 2.327274,-1.02472 2.327274,-2.32728 l 0,-10.08485 -7.85455,0 z" id="path18963" style="fill:url(#linearGradient1983);fill-opacity:1"/><path d="M 92.919293,262.69098 9.7750402,223.9203 l 0,0.9697 83.1442528,38.80946 0,-1.00848 z" id="rect22326" style="fill:#460000;fill-opacity:1;stroke:none"/><g id="g16203"><polygon points="50.508301,222.77344 201.84668,222.77344 201.84668,193.0459 200.04492,193.0459 200.04492,193.0459 50.508301,193.0459 " transform="matrix(0.727273,-0.339132,0,0.727273,79.58301,-25.54693)" id="polygon10636" style="fill:#6b411f;fill-opacity:1"/><path d="m 117.62564,98.421028 c 0,2.164062 0,16.834522 0,18.999292 1.91478,-0.89287 105.52989,-49.209229 107.44466,-50.102098 0,-2.164772 0,-16.835239 0,-18.999298 -1.91477,0.89287 -105.52988,49.209233 -107.44466,50.102104 z" id="path10638" style="fill:url(#linearGradient13542);fill-opacity:1"/><path d="m 118.93601,99.120358 c 1.80434,-0.841372 93.95815,-43.813259 106.13429,-49.49107 0,-0.590909 0,-1.046873 0,-1.310364 -1.91477,0.89287 -105.52988,49.209233 -107.44466,50.102104 0,2.164062 0,16.834522 0,18.999292 0.11044,-0.0515 0.56996,-0.26577 1.31037,-0.61103 0,-4.25213 0,-15.78836 0,-17.688932 z" id="path10640" style="opacity:0.7;fill:#ffffff"/><circle cx="129.32935" cy="211.06152" r="9.0085449" transform="matrix(0.727273,-0.339132,0,0.727273,79.58301,-26.71059)" id="circle10642" style="opacity:0.2"/><circle cx="127.52783" cy="209.25977" r="9.0073242" transform="matrix(0.727273,-0.339132,0,0.727273,79.58301,-26.71059)" id="circle10644" style="fill:#3d1e1e;fill-opacity:1"/><path d="m 172.33146,76.988317 c -2.89205,1.348582 -5.24219,4.796385 -5.24219,7.687012 0,2.889914 2.35014,4.144885 5.24219,2.796304 2.88991,-1.347585 5.24078,-4.794658 5.24078,-7.684572 0,-2.890627 -2.35087,-4.146328 -5.24078,-2.798744 z" id="path10646" style="fill:url(#linearGradient13536);fill-opacity:1;stroke:none"/></g><path d="m 89.792685,263.68007 0,10.08485 c 3e-6,1.30256 1.024721,2.32728 2.327274,2.32728 l 3.200002,0 c 1.30256,0 2.327274,-1.02472 2.327274,-2.32728 l 0,-10.08485 -7.85455,0 z" id="path3184" style="fill:url(#linearGradient1972);fill-opacity:1"/><use id="use2049" x="0" y="0" width="256" height="256" xlink:href="#g16203"/><use transform="translate(0,25.85798)" id="use2051" x="0" y="0" width="256" height="256" xlink:href="#g16203"/><use transform="translate(0,51.71596)" id="use2053" x="0" y="0" width="256" height="256" xlink:href="#g16203"/><use transform="translate(0,77.57394)" id="use2055" x="0" y="0" width="256" height="256" xlink:href="#g16203"/><use transform="translate(0,103.4319)" id="use2057" x="0" y="0" width="256" height="256" xlink:href="#g16203"/><use transform="translate(0,129.2899)" id="use2059" x="0" y="0" width="256" height="256" xlink:href="#g16203"/></g></svg>