<svg xmlns="http://www.w3.org/2000/svg" xmlns:xlink="http://www.w3.org/1999/xlink" width="200" height="200" viewBox="0 0 256 256" >
<title>table</title>
<defs>
    <linearGradient	id="grad1" x1="0%" y1="0%" x2="0%" y2="100%">
			<stop offset="10%" stop-color="white" />
			<stop offset="80%" stop-color="red" /> 
			<stop offset="100%" stop-color="darkred" /> 			
</linearGradient>
<linearGradient	id="grad2" x1="0%" y1="0%" x2="0%" y2="100%">
			<stop offset="5%" stop-color="white" />
			<stop offset="10%" stop-color="#ffeebb" />
			<stop offset="100%" stop-color="#ffd282" /> 
</linearGradient>
<linearGradient id="grad3" x1="0%" y1="0%" x2="0%" y2="100%" >
		<stop stop-color="#ffe091" offset="0"/>
		<stop stop-color="#ff6d00" offset="1"/>
</linearGradient>	
<linearGradient id="grad4" >
		<stop id="stop406" stop-color="#ffe091" offset="0"/>
		<stop id="stop408" stop-color="#ff6d00" offset="0.79774499"/>
		<stop id="stop410" stop-color="#cf3f00" offset="1"/>
	</linearGradient>	
<linearGradient x1="0%" y1="0%" x2="0%" y2="100%" id="gradVertical" xlink:href="#grad4" />
<linearGradient x1="0%" y1="0%" x2="100%" y2="0" id="gradHorizontal" xlink:href="#grad4" />
     
</defs>

<rect id="body" width="200" height="35" x="30" y="25" style="fill:url(#grad3);stroke-width:2;stroke:#460000"/>
<rect id="top" width="215" height="12" x="20" y="13" rx="4" style="fill:url(#gradVertical);stroke-width:2;stroke:#460000"/>

<path id="feet" d="m 30,60 0,180 c 4e-6,1.7 1.32,3 3,3 l 4,0 c 1.78,0 3,-1.32 3,-3 l 0,-180 -10,0 z"  style="fill:url(#gradHorizontal);stroke-width:2;stroke:#460000"/>
<use transform="translate(190,0)" x="0" y="0" width="256" height="256" xlink:href="#feet"/>

<g id="drawer">
<rect style="fill:url(#grad2);stroke:#824f26;stroke-width:1.5" x="58" y="30" rx="1" width="140" height="27" />
<circle style="fill:url(#grad1);stroke:black;stroke-width:1.5" cx="128" cy="44" r="8"  />
</g>

</svg>
